<?xml version="1.0" standalone="no"?>
<!DOCTYPE svg PUBLIC "-//W3C//DTD SVG 20010904//EN"
 "http://www.w3.org/TR/2001/REC-SVG-20010904/DTD/svg10.dtd">
<svg version="1.0" xmlns="http://www.w3.org/2000/svg"
 width="424.000000pt" height="424.000000pt" viewBox="0 0 424.000000 424.000000"
 preserveAspectRatio="xMidYMid meet">
<metadata>
Created by potrace 1.11, written by Peter Selinger 2001-2013
</metadata>
<g transform="translate(0.000000,424.000000) scale(0.100000,-0.100000)"
fill="#000000" stroke="none">
<path d="M830 4165 c-3 -674 0 -3556 4 -3557 3 -2 50 41 105 94 56 54 106 98
113 98 6 0 9 3 5 6 -8 8 25 44 42 44 8 0 11 3 8 6 -9 9 53 65 64 58 5 -3 6 3
2 13 -3 10 -3 15 0 12 4 -3 66 54 139 127 73 73 136 130 142 127 5 -3 6 -2 3
4 -4 6 17 31 45 57 l51 47 20 -48 c11 -27 27 -66 37 -88 59 -134 90 -218 84
-228 -4 -7 -4 -9 1 -5 10 9 37 -40 29 -53 -3 -5 -1 -9 4 -9 9 0 24 -40 21 -56
0 -4 3 -10 8 -13 10 -7 76 -166 73 -177 -1 -4 2 -10 7 -13 11 -7 79 -173 75
-183 -1 -5 3 -8 8 -8 6 0 10 -6 10 -13 0 -8 7 -28 16 -45 8 -18 12 -37 8 -44
-4 -7 -3 -10 1 -5 7 6 18 -16 70 -138 4 -11 9 -22 10 -25 2 -3 6 -15 10 -28 6
-18 13 -22 29 -17 11 3 29 8 40 10 10 2 24 9 32 16 8 6 14 9 14 5 0 -4 11 1
25 10 13 8 30 12 36 8 7 -4 9 -3 6 3 -8 12 20 26 34 17 5 -3 9 -1 9 4 0 5 12
14 26 20 14 7 23 8 19 2 -3 -5 -2 -10 2 -10 5 0 14 9 21 21 10 15 21 20 37 16
14 -2 22 -1 20 3 -3 5 2 11 11 14 22 9 26 8 18 -6 -4 -7 -3 -8 5 -4 6 4 9 11
6 15 -2 5 13 15 34 23 34 14 39 14 49 -1 9 -13 10 -13 5 5 -4 17 1 23 24 29
15 5 31 8 36 7 4 -1 7 2 7 7 0 9 48 26 63 23 4 -1 7 3 7 8 0 5 3 9 8 8 4 -1
29 8 55 20 27 12 54 19 59 15 6 -3 8 -2 5 4 -10 16 38 34 53 20 10 -9 11 -9 6
0 -3 6 0 15 8 20 12 7 10 20 -15 83 -16 41 -39 94 -49 117 -11 24 -20 46 -20
49 0 3 -7 20 -15 37 -8 18 -24 57 -35 87 -12 30 -28 69 -35 85 -8 17 -37 86
-65 155 -28 69 -58 143 -68 165 -9 21 -16 42 -15 45 0 3 -5 16 -12 30 -17 32
-39 83 -60 140 -10 25 -23 59 -30 75 -36 80 -36 85 -12 85 13 0 29 -6 36 -12
11 -11 13 -10 7 0 -6 10 30 12 173 12 136 -1 180 -4 175 -13 -5 -8 -3 -8 7 1
7 6 25 12 39 12 14 0 32 -6 39 -12 11 -10 13 -10 7 0 -5 8 0 12 14 12 14 0 19
-4 14 -13 -6 -9 -4 -9 8 1 21 17 358 16 358 -1 0 -9 2 -9 8 0 4 6 31 11 61 11
29 1 55 2 56 4 3 3 -263 274 -1408 1431 -331 335 -734 742 -894 905 l-293 297
0 -60z"/>
<path d="M2495 1560 c-3 -5 -1 -10 4 -10 6 0 11 5 11 10 0 6 -2 10 -4 10 -3 0
-8 -4 -11 -10z"/>
<path d="M2575 1560 c-3 -5 -1 -10 4 -10 6 0 11 5 11 10 0 6 -2 10 -4 10 -3 0
-8 -4 -11 -10z"/>
<path d="M3055 1560 c-3 -5 -1 -10 4 -10 6 0 11 5 11 10 0 6 -2 10 -4 10 -3 0
-8 -4 -11 -10z"/>
<path d="M1530 1259 c0 -5 5 -7 10 -4 6 3 10 8 10 11 0 2 -4 4 -10 4 -5 0 -10
-5 -10 -11z"/>
<path d="M1995 171 c-3 -5 -2 -12 3 -15 5 -3 9 1 9 9 0 17 -3 19 -12 6z"/>
</g>
</svg>
